<svg width="800px" height="800px" fill="#000000" version="1.1" viewBox="0 0 505 505" xml:space="preserve" xmlns="http://www.w3.org/2000/svg">
<g transform="rotate(45 252.5 252.5)">
	<path d="m445.32 269.97-30.935 38.354v-200.8c0-16.61-13.464-30.093-30.083-30.093-0.842 0-1.636 0.182-2.468 0.249-2.056-0.401-4.159-0.641-6.35-0.641h-98.807c-18.484 0-33.469 14.984-33.469 33.469s14.984 33.469 33.469 33.469h77.532v160.95l-28.19-34.96c-14.21-17.624-36.596-23.132-50.021-12.308-13.416 10.815-12.785 33.87 1.406 51.494l74.31 92.173c2.668 3.299 5.633 6.12 8.76 8.539 5.498 7.201 14.076 11.896 23.82 11.896 7.401 0 14.114-2.783 19.345-7.229 5.795-3.003 11.332-7.449 15.97-13.206l74.301-92.153c14.2-17.624 14.85-40.688 1.415-51.514-13.409-10.825-35.805-5.317-50.005 12.317z"/>
	<path d="m9.666 247.34c13.417 10.825 35.812 5.317 50.012-12.316l30.935-38.355v200.8c0 16.61 13.464 30.093 30.083 30.093 0.841 0 1.635-0.182 2.467-0.248 2.056 0.401 4.16 0.641 6.349 0.641h98.81c18.484 0 33.468-14.984 33.468-33.469s-14.984-33.469-33.468-33.469h-77.533v-160.95l28.19 34.96c14.21 17.624 36.596 23.132 50.021 12.307 13.417-10.815 12.786-33.871-1.406-51.494l-74.31-92.173c-2.668-3.299-5.632-6.12-8.759-8.54-5.499-7.2-14.076-11.896-23.82-11.896-7.401 0-14.114 2.783-19.345 7.229-5.795 3.002-11.332 7.449-15.969 13.206l-74.301 92.156c-14.21 17.623-14.85 40.688-1.424 51.513z"/>
</g>
</svg>
